<svg width="634" height="70" viewBox="0 0 634 70" fill="none" xmlns="http://www.w3.org/2000/svg">
<path fill-rule="evenodd" clip-rule="evenodd" d="M523.185 70C533.491 70 543.663 65.4493 547.812 62.1033L549.284 47.2466H547.678C544.198 65.0478 531.216 67.7247 523.72 67.7247C509.533 67.7247 500.699 56.2141 500.699 36.5392C500.699 13.1166 510.068 3.21223 523.453 3.21223C535.231 3.21223 543.931 12.3136 547.009 22.7534H548.615L547.009 0H545.403C545.001 4.0153 543.529 5.21988 541.388 5.21988C537.372 5.21988 532.42 0.936899 522.65 0.936899C504.848 0.936899 489.59 16.0612 489.59 36.5392C489.456 54.2065 503.51 70 523.185 70Z" fill="black"/>
<path fill-rule="evenodd" clip-rule="evenodd" d="M233.951 14.0535L245.06 42.4283H223.243L233.951 14.0535ZM223.912 68.7954V67.0555C219.495 67.0555 216.685 66.2524 216.685 62.1033C216.685 60.3633 217.086 58.2218 218.157 55.5449L222.306 44.7036H245.996L252.421 60.631C253.09 62.2371 253.224 63.0402 253.224 63.7094C253.224 65.717 251.082 67.0555 247.736 67.0555H246.666V68.7954H272.23V67.0555C267.947 67.0555 265.805 64.914 262.994 58.6233L238.1 0H236.895L215.614 55.0096C211.331 65.8509 207.45 67.0555 202.364 67.0555V68.7954H223.912Z" fill="black"/>
<path fill-rule="evenodd" clip-rule="evenodd" d="M437.392 66.1185C427.755 66.1185 422.669 59.4263 422.669 51.3957C422.669 44.7036 424.944 38.5468 432.038 34.7992L450.91 59.2925C446.359 64.1108 441.808 66.1185 437.392 66.1185ZM436.053 26.367C432.841 22.2179 429.896 17.8011 429.896 12.5812C429.896 7.49514 433.242 2.94448 438.864 2.94448C444.887 2.94448 448.367 8.16437 448.367 14.7227C448.367 20.0764 446.894 25.8317 438.596 29.7131L436.053 26.367ZM432.841 69.9999C439.399 69.9999 446.091 67.7246 452.516 61.1663L453.453 62.237C455.46 64.6462 457.067 67.3231 457.87 68.7953H479.82V67.0554C472.057 67.0554 467.506 65.8508 458.003 54.0726C469.915 36.2714 471.388 34.933 477.946 34.933V33.193H454.925V34.933C459.877 34.933 461.885 36.8068 461.885 40.0191C461.885 43.0974 460.011 47.3804 456.665 52.3326L439.935 31.4531C451.98 25.9655 454.657 19.1395 454.657 14.455C454.657 6.55823 448.233 0.802979 439.265 0.802979C429.629 0.802979 422.936 8.69975 422.936 16.8642C422.936 21.8164 425.212 26.0994 430.03 32.1223L430.833 33.0592C416.512 40.1529 413.701 48.4512 413.701 54.2064C413.701 64.9139 424.275 69.9999 432.841 69.9999Z" fill="black"/>
<path fill-rule="evenodd" clip-rule="evenodd" d="M589.839 67.8585C578.462 67.8585 567.888 57.6864 567.888 35.4684C567.888 13.2505 578.462 3.07835 589.839 3.07835C601.215 3.07835 611.789 13.3843 611.789 35.4684C611.655 57.6864 601.215 67.8585 589.839 67.8585ZM589.839 70C608.309 70 623.032 54.4742 623.032 35.3346C623.032 16.3288 608.309 0.669189 589.839 0.669189C571.368 0.669189 556.646 16.3288 556.646 35.3346C556.646 54.4742 571.368 70 589.839 70Z" fill="black"/>
<path fill-rule="evenodd" clip-rule="evenodd" d="M43.6252 68.7955V67.0555H41.7514C35.8623 67.0555 35.0592 65.7171 35.0592 58.8911V4.14917H38.1376C50.1835 4.14917 55.5372 7.76293 58.7495 15.6597H60.3556L57.1434 2.00769H3.20454L-0.00769043 15.6597H1.59842C4.81066 7.76293 10.1644 4.14917 22.2103 4.14917H25.2887V58.8911C25.2887 65.7171 24.4856 67.0555 18.5965 67.0555H16.7227V68.7955H43.6252Z" fill="black"/>
<path fill-rule="evenodd" clip-rule="evenodd" d="M93.5492 68.7955V67.0555H92.4785C86.5894 67.0555 85.7863 65.7171 85.7863 58.8911V11.9121C85.7863 5.21992 86.5894 3.74764 92.4785 3.74764H93.5492V2.00769H68.119V3.74764H69.1898C75.0789 3.74764 75.8819 5.08608 75.8819 11.9121V58.8911C75.8819 65.7171 75.0789 67.0555 69.1898 67.0555H68.119V68.7955H93.5492Z" fill="black"/>
<path fill-rule="evenodd" clip-rule="evenodd" d="M132.764 68.7955V67.0555H129.686C124.198 67.0555 123.395 65.7171 123.395 58.8911V34.5316H128.214C138.386 34.5316 142.535 36.9408 142.803 45.5067H144.409V21.9503H142.803C142.535 31.1855 136.512 32.6578 128.214 32.6578H123.395V4.01534H129.552C143.472 4.01534 149.762 5.75529 153.242 15.7935H154.848L152.038 2.00769H105.862V3.74764H107.468C112.956 3.74764 113.892 5.08608 113.892 11.9121V58.8911C113.892 65.7171 113.089 67.0555 107.468 67.0555H105.862V68.7955H132.764Z" fill="black"/>
<path fill-rule="evenodd" clip-rule="evenodd" d="M187.373 68.7955V67.0555H184.295C178.807 67.0555 178.004 65.7171 178.004 58.8911V34.5316H182.823C192.995 34.5316 197.144 36.9408 197.412 45.5067H199.018V21.9503H197.412C197.144 31.1855 191.121 32.6578 182.823 32.6578H178.004V4.01534H184.161C198.081 4.01534 204.371 5.75529 207.851 15.7935H209.457L206.647 2.00769H160.471V3.74764H162.077C167.565 3.74764 168.501 5.08608 168.501 11.9121V58.8911C168.501 65.7171 167.698 67.0555 162.077 67.0555H160.471V68.7955H187.373Z" fill="black"/>
<path fill-rule="evenodd" clip-rule="evenodd" d="M329.381 69.5985V11.2428C329.381 6.29061 331.656 3.61375 335.806 3.61375V1.87378H318.674V3.61375H320.414C324.563 3.61375 326.838 6.29061 326.838 11.2428V51.9311L289.228 1.87378H270.892V3.61375C274.907 3.61375 278.922 4.68449 282.67 9.63669V59.4264C282.67 64.3786 280.394 67.0555 276.245 67.0555V68.7954H293.779V67.0555H291.503C287.354 67.0555 285.079 64.3786 285.079 59.4264V12.4474L328.043 69.4646H329.381V69.5985Z" fill="black"/>
<path fill-rule="evenodd" clip-rule="evenodd" d="M387.469 68.7954V67.0555H384.658C379.706 67.0555 378.903 66.2524 378.903 61.3002V37.0745L393.224 14.8566C399.782 4.6845 402.058 3.61375 408.214 3.61375V1.87378H384.792V3.61375C390.279 3.61375 392.421 5.08601 392.421 8.43209C392.421 10.9751 390.949 13.652 388.941 16.7304L377.297 35.2007L362.306 10.0382C361.236 8.29826 360.7 7.09367 360.7 6.02293C360.7 4.6845 361.503 3.74758 364.448 3.74758H367.258V2.00763H340.891V3.74758C346.111 3.74758 348.119 4.14911 351.465 9.77052L369.132 39.0822V61.434C369.132 66.3862 368.329 67.1893 363.377 67.1893H360.566V68.9293H387.469V68.7954Z" fill="black"/>
<path fill-rule="evenodd" clip-rule="evenodd" d="M628.253 69.0631C631.465 69.0631 634.008 66.5201 634.008 63.3079C634.008 60.0956 631.465 57.5526 628.253 57.5526C625.041 57.5526 622.498 60.0956 622.498 63.3079C622.364 66.5201 625.041 69.0631 628.253 69.0631Z" fill="black"/>
</svg>
