<svg xmlns="http://www.w3.org/2000/svg" viewBox="0 0 670 670" width="670" height="670" preserveAspectRatio="xMinYMid meet" style="width: 100%; height: 100%; transform: translate3d(0px, 0px, 0px); content-visibility: visible;"><defs><clipPath id="__lottie_element_3"><rect width="670" height="670" x="0" y="0"></rect></clipPath><clipPath id="__lottie_element_5"><path d="M0,0 L900,0 L900,900 L0,900z"></path></clipPath><linearGradient id="__lottie_element_14" spreadMethod="pad" gradientUnits="userSpaceOnUse" x1="-245.2779998779297" y1="-172.04100036621094" x2="-137.58599853515625" y2="-299.65399169921875"><stop offset="0%" stop-color="rgb(255,255,255)" stop-opacity="1"></stop><stop offset="50%" stop-color="rgb(255,255,255)" stop-opacity="0.5"></stop><stop offset="100%" stop-color="rgb(255,255,255)" stop-opacity="0"></stop></linearGradient></defs><g clip-path="url(#__lottie_element_3)"><g transform="matrix(8.59000015258789,0,0,8.59000015258789,2.12890625,2.137481689453125)" opacity="1" style="display: block;"><g opacity="1" transform="matrix(1,0,0,1,38.750999450683594,38.75)"><path fill="rgb(255,255,255)" fill-opacity="1" d=" M19.263999938964844,-11.831999778747559 C19.263999938964844,-10.838000297546387 18.63599967956543,-10.027000427246094 17.69499969482422,-9.765000343322754 C16.493000030517578,-9.39900016784668 7.998000144958496,-8.458000183105469 6.926000118255615,-8.223999977111816 C5.88100004196167,-7.9629998207092285 5.306000232696533,-7.151000022888184 5.2789998054504395,-5.843999862670898 C5.2789998054504395,-3.9619998931884766 5.28000020980835,2.2060000896453857 5.724999904632568,5.053999900817871 C6.169000148773193,7.8520002365112305 9.4350004196167,21.259000778198242 9.565999984741211,21.809999465942383 C9.958000183105469,23.273000717163086 9.071000099182129,24.500999450683594 7.632999897003174,24.500999450683594 C6.613999843597412,24.500999450683594 5.855999946594238,23.97800064086914 5.541999816894531,22.5939998626709 C4.861999988555908,19.847999572753906 2.4830000400543213,10.571000099182129 1.8289999961853027,8.321999549865723 C1.3329999446868896,6.754000186920166 0.8629999756813049,6.126999855041504 0.0010000000474974513,6.126999855041504 C-0.8619999885559082,6.126999855041504 -1.3589999675750732,6.754000186920166 -1.8289999961853027,8.321999549865723 C-2.509000062942505,10.571000099182129 -4.861999988555908,19.847999572753906 -5.541999816894531,22.5939998626709 C-5.881999969482422,23.97800064086914 -6.639999866485596,24.500999450683594 -7.632999897003174,24.500999450683594 C-9.069999694824219,24.500999450683594 -9.984000205993652,23.273000717163086 -9.565999984741211,21.809999465942383 C-9.4350004196167,21.259000778198242 -6.169000148773193,7.8520002365112305 -5.724999904632568,5.053999900817871 C-5.28000020980835,2.2060000896453857 -5.2789998054504395,-3.9619998931884766 -5.2789998054504395,-5.843999862670898 C-5.304999828338623,-7.151000022888184 -5.9070000648498535,-7.9629998207092285 -6.952000141143799,-8.223999977111816 C-7.998000144958496,-8.458000183105469 -16.493000030517578,-9.39900016784668 -17.69499969482422,-9.765000343322754 C-18.66200065612793,-10.027000427246094 -19.263999938964844,-10.838000297546387 -19.263999938964844,-11.831999778747559 C-19.263999938964844,-13.215999603271484 -18.29599952697754,-14 -17.32900047302246,-14 C-16.98900032043457,-14 -16.677000045776367,-13.946999549865723 -16.336999893188477,-13.895000457763672 C-12.807999610900879,-13.243000030517578 -5.28000020980835,-12.406000137329102 -0.0010000000474974513,-12.406000137329102 C5.2789998054504395,-12.406000137329102 12.807999610900879,-13.243000030517578 16.336999893188477,-13.895000457763672 C16.677000045776367,-13.946999549865723 16.98900032043457,-14 17.32900047302246,-14 C18.270000457763672,-14 19.263999938964844,-13.21500015258789 19.263999938964844,-11.831999778747559z M-4.813000202178955,-19.687000274658203 C-4.813000202178955,-22.344999313354492 -2.6579999923706055,-24.499000549316406 -0.0010000000474974513,-24.499000549316406 C2.6570000648498535,-24.499000549316406 4.813000202178955,-22.344999313354492 4.813000202178955,-19.687000274658203 C4.813000202178955,-17.02899932861328 2.6570000648498535,-14.875 -0.0010000000474974513,-14.875 C-2.6579999923706055,-14.875 -4.813000202178955,-17.02899932861328 -4.813000202178955,-19.687000274658203z"></path></g></g><g clip-path="url(#__lottie_element_5)" transform="matrix(1,0,0,1,-115,-115)" opacity="1" style="display: block;"><g transform="matrix(1,0,0,1,450,450)" opacity="1" style="display: block;"><g opacity="1" transform="matrix(1,0,0,1,0,0)"><path stroke="url(#__lottie_element_14)" stroke-linecap="round" stroke-linejoin="miter" fill-opacity="0" stroke-miterlimit="4" stroke-opacity="1" stroke-width="36" d=" M-278.10699462890625,-140.3699951171875 C-299.4639892578125,-98.17900085449219 -311.5,-50.483001708984375 -311.5,0 C-311.5,171.91685485839844 -171.91685485839844,311.5 0,311.5 C107.45500183105469,311.5 202.2779998779297,256.9679870605469 258.2799987792969,174.09300231933594"></path></g></g><g transform="matrix(1,0,0,1,450,450)" opacity="1" style="display: block;"><g opacity="1" transform="matrix(1,0,0,1,0,0)"><path stroke-linecap="round" stroke-linejoin="miter" fill-opacity="0" stroke-miterlimit="4" stroke="rgb(255,255,255)" stroke-opacity="1" stroke-width="36" d=" M220.218994140625,220.218994140625 C276.60400390625,163.83299255371094 311.5,85.95800018310547 311.5,0 C311.5,-171.91685485839844 171.91685485839844,-311.5 0,-311.5 C0,-311.5 0,-311.5 0,-311.5 C-171.91685485839844,-311.5 -311.5,-171.91685485839844 -311.5,0 C-311.5,14.026000022888184 -310.5710144042969,27.836999893188477 -308.77099609375,41.375"></path></g></g></g></g></svg>