<svg xmlns="http://www.w3.org/2000/svg" xmlns:xlink="http://www.w3.org/1999/xlink" fill="none" viewBox="0 0 180 39">
  <g clip-path="url(#a)">
    <path fill="#fff" d="M72.235 33.844c1.539 0 4.214-.49 6.322-3.857-1.18-2.707-2.002-8.14-2.108-10.121C75.901 9.745 79.821.24 84.035.006c3.098-.17 5.564 2.813 5.816 7.607.674 12.615-3.498 17.857-5.606 22.374.338 1.768 3.266 4.774 6.07 4.794 1.031 0 2.275-.51 2.59-.937-.21-.724-.4-1.662-.4-3.026.042-7.309 4.74-13.445 8.766-13.423 3.203 0 5.036 4.303 5.014 7.137 0 3.346-2.824 6.03-6.974 8.63.716.725 2.044 1.257 3.203 1.278 5.879.043 9.019-7.138 11.337-13.722.421-1.258 1.159-3.026 2.592-3.004 2.487 0 3.413 16.514 7.522 16.534 1.77 0 3.224-3.643 3.246-6.455 0-2.088-.717-2.302-.695-5.328 0-3.344 1.79-6.136 4.172-6.136s1.96 1.47 1.938 3.24c-.042 6.69-4.867 19.07-11.885 19.027-5.268-.043-4.805-9.227-6.659-9.227s-5.015 9.27-15.236 9.205c-1.665 0-3.414-.852-4.847-2.535-2.487 1.661-4.551 2.386-6.933 2.365-3.814 0-5.436-4.006-6.996-4.006s-3.941 4.048-10.157 4.006c-4.953 0-5.732-6.712-7.502-6.734-1.56 0-3.963 6.648-6.554 6.627-4.342 0-5.184-11.613-9.02-11.634-2.992 0-12.538 11.697-15.087 11.399-1.032-.107-1.454-.895-1.35-1.94.148-1.449 1.412-5.305 1.919-7.137.864-3.176 1.643-6.648 2.086-7.756.421-1.108 1.58-1.918 2.507-1.811.464.042.59.916.737 1.64.506 2.579 1.222 5.221 2.045 5.221 1.453 0 6.3-9.247 9.082-9.227 3.414 0 3.73 14.639 8.366 14.682 1.56 0 2.698-1.854 3.751-4.155.127-3.878 1.202-9.376 4.299-9.354 2.17 0 3.182 4.921 1.601 9.205-.022 5.113 3.266 6.392 5.436 6.392m82.674-11.974c-1.306 5.37-5.247 13.232-11.021 13.19-1.35 0-3.709-.554-3.709-1.897s9.103-1.598 9.145-8.608c0-2.6-2.34-6.286-5.837-6.308-4.636 0-9.209 5.07-9.251 12.166-.042 6.371 3.856 8.48 7.775 8.502 6.828.043 10.98-5.561 13.17-10.248C156.187 31.777 156.756 39 159.348 39s1.77-.511 3.014-3.324c3.14-6.989 6.174-15 10.304-14.98 1.539 0 .611 2.834 4.32 2.856 1.749 0 2.992-1.45 3.014-3.133 0-2.408-2.128-4.283-5.436-4.304-9.714-.064-11.864 14.639-13.403 14.639-2.591 0-1.685-11.805-3.54-11.826-1.643 0-2.487 1.982-2.697 2.898m-68.444-11.4c-.168-2.918-.842-4.24-2.402-4.154-2.064.107-3.056 6.648-2.676 13.53.231 4.496.884 5.178 1.517 5.136 1.138-.064 3.919-8.054 3.561-14.532M69.727 4.183C69.601 2.5 68.294 1.35 66.545 1.35S62.731 3.394 62.9 6.016c.106 1.726 1.116 3.153 3.077 3.153s3.94-2.578 3.729-4.986m32.01 21.5c0-1.768-.906-3.24-2.044-3.24s-3.098 1.024-3.119 4.369c0 2.62.906 3.857 1.306 4.41 2.993-.916 3.835-3.43 3.857-5.518m40.395-3.303c2.17 0 2.781 2.62 2.254 4.177s-2.402 3.324-5.289 3.835c-.611-1.577-.885-8.034 3.034-8.012M23.262 14.22c-.295-.96-1.138-3.09-1.37-4.667-.484-3.495 1.328-5.775 2.971-6.286 1.855-.511 2.592.426 3.288 2.642.906 3.345.99 7.735.633 14-.464 8.565-4.763 18.879-15.3 18.58C4.403 38.233.42 32.246.04 23.169-.128 18.884.187 14.602 2 8.571c.948-3.24 1.79-4.39 4.678-4.986 2.275-.405 2.044 1.982 1.517 4.816-1.16 6.244-1.707 9.27-1.35 16.386.358 7.522 3.752 10.463 7.481 10.485 5.584.149 8.07-4.539 9.167-11.315.864-5.412.253-8.033-.253-9.695"/>
  </g>
  <defs>
    <clipPath id="a">
      <path fill="#fff" d="M0 0h180v39H0z"/>
    </clipPath>
  </defs>
</svg>